<svg xmlns="http://www.w3.org/2000/svg" version="1.1" xmlns:xlink="http://www.w3.org/1999/xlink" xmlns:svgjs="http://svgjs.dev/svgjs" width="1500" height="681" viewBox="0 0 1500 681"><g transform="matrix(1,0,0,1,-0.9084522071641459,-1.7759782005070974)"><svg viewBox="0 0 396 180" data-background-color="#deebff" preserveAspectRatio="xMidYMid meet" height="681" width="1500" xmlns="http://www.w3.org/2000/svg" xmlns:xlink="http://www.w3.org/1999/xlink"><g id="tight-bounds" transform="matrix(1,0,0,1,0.24008861730862918,0.4694215507948343)"><svg viewBox="0 0 395.52 179.06115689841033" height="179.06115689841033" width="395.52"><g><svg viewBox="0 0 395.52 179.06115689841033" height="179.06115689841033" width="395.52"><g><svg viewBox="0 0 395.52 179.06115689841033" height="179.06115689841033" width="395.52"><g id="textblocktransform"><svg viewBox="0 0 395.52 179.06115689841033" height="179.06115689841033" width="395.52" id="textblock"><g><svg viewBox="0 0 395.52 138.9654583541038" height="138.9654583541038" width="395.52"><path d="M394.594 29.805C392.735 15.381 387.435 11.371 387.435 11.371 371.165-3.486 350.86-0.284 332.619 1.851 300.414 1.937 268.339 5.111 236.208 6.813 168.767 7.072 100.749 2.803 33.643 13.333 27.339 16.564-6.54 13.967 1.121 31.652 3.129 39.008 10.456 47.173 10.232 53.923 11.236 55.106 12.631 52.394 13.226 54.096 15.309 58.683 18.711 56.52 21.501 59.232 17.614 66.473 20.403 72.502 23.062 78.82 18.377 80.465 12.371 79.686 9.675 85.138 9.396 89.09 7.89 88.34 6.235 88.167 5.026 88.052 2.59 88.485 2.999 89.725 4.394 93.966-1.594 96.418 2.162 100.572-0.422 105.073 3.948 108.967 3.353 113.843 3.278 114.824 3.687 115.66 4.338 115.891 7.22 117.132 3.018 119.555 3.464 122.18 33.029 140.125 65.104 127.719 95.394 135.97 103.259 130.2 97.346 138.019 100.489 136.807 102.943 135.393 104.728 141.25 107.499 137.932 107.927 136.98 107.276 134.73 108.8 135.162 109.6 135.393 110.307 135.336 110.418 134.008 110.586 132.018 109.117 133.258 108.726 132.22 112.947 126.969 111.906 139.461 115.866 138.942 115.68 137.413 114.528 135.22 116.889 135.509 119.232 133.316 119.306 131.499 121.389 136.432 121.463 137.499 121.835 138.249 122.43 138.769 128.938 133.403 135.409 140.673 142.233 138.249 146.417 135.595 150.433 139.692 154.672 138.682 156.16 137.874 157.666 136.432 159.098 138.855 176.632 139.374 195.319 137.211 211.943 138.942 256.364 135.711 303.836 140.269 350.674 135.999 361.719 134.355 373.192 132.018 383.958 130.143 383.958 130.143 392.679 125.008 392.679 101.928S394.538 81.734 394.817 63.357C395.096 44.98 396.398 44.23 394.538 29.805Z" opacity="1" fill="#517aee" data-fill-palette-color="tertiary"></path><g transform="matrix(1,0,0,1,55.76832,26.068561146666667)"><svg width="283.98335999999995" viewBox="-1.85 -37.6 184.29 56.35" height="86.82833606077045" data-palette-color="#ffffff"><path d="M-0.25 0.7L-0.25 0.7Q-1.05 0.7-1.45 0.03-1.85-0.65-1.85-1.45L-1.85-1.45Q-1.85-2.3-1.4-2.95-0.95-3.6 0.05-3.6L0.05-3.6Q1.75-3.6 3.18-5.13 4.6-6.65 5.78-9.05 6.95-11.45 7.9-14.15L7.9-14.15Q8.7-16.45 9.65-18.95 10.6-21.45 11.25-23.85L11.25-23.85Q12.25-24.1 13.6-24.05 14.95-24 15.85-23.6L15.85-23.6 16.15-20.15Q18.85-24.3 23.35-24.3L23.35-24.3Q27.05-24.3 29.2-21.73 31.35-19.15 31.35-14.6L31.35-14.6 31.35-8.75Q31.35-6 32.08-4.8 32.8-3.6 34.4-3.6L34.4-3.6Q35.1-3.6 35.48-3 35.85-2.4 35.85-1.4L35.85-1.4Q35.85-0.6 35.43 0.05 35 0.7 34.05 0.7L34.05 0.7Q26.8 0.7 26.8-8.2L26.8-8.2 26.8-14.6Q26.8-20 22.85-20L22.85-20Q21.1-20 19.65-18.65 18.2-17.3 17.38-15.08 16.55-12.85 16.55-10.1L16.55-10.1 16.55 18.4Q16.05 18.55 15.45 18.65 14.85 18.75 14.3 18.75L14.3 18.75Q13.1 18.75 12 18.4L12 18.4 12-13.35 11.8-12.8Q10.4-8.8 8.83-5.75 7.25-2.7 5.1-1 2.95 0.7-0.25 0.7ZM34.4-3.6L34.4-3.6Q35.45-3.6 36.65-4.25 37.85-4.9 38.9-6.25L38.9-6.25Q40.35-8.25 40.92-10.95 41.5-13.65 41.5-16.2L41.5-16.2 41.5-23.6Q41.95-23.75 42.55-23.85 43.15-23.95 43.8-23.95L43.8-23.95Q44.95-23.95 46.05-23.6L46.05-23.6 46.05-12.05Q46.05-7.7 47.45-5.73 48.85-3.75 51.85-3.75L51.85-3.75Q59-3.75 59-14.2L59-14.2 59-23.6Q59.4-23.75 60-23.85 60.6-23.95 61.25-23.95L61.25-23.95Q62.45-23.95 63.55-23.6L63.55-23.6 63.55-9.2Q63.55-6.55 64.37-5.08 65.2-3.6 67.15-3.6L67.15-3.6Q68-3.6 68.3-2.9 68.6-2.2 68.6-1.4L68.6-1.4Q68.6-0.6 68.17 0.05 67.75 0.7 66.8 0.7L66.8 0.7Q62 0.7 60.3-3.5L60.3-3.5Q58.9-1.45 56.7-0.38 54.5 0.7 51.5 0.7L51.5 0.7Q45.15 0.7 42.8-4.7L42.8-4.7Q42-3.25 41-2.25L41-2.25Q39.65-0.9 37.87-0.1 36.1 0.7 34.05 0.7L34.05 0.7Q33.35 0.7 32.97 0.03 32.6-0.65 32.6-1.45L32.6-1.45Q32.6-2.3 33.02-2.95 33.45-3.6 34.4-3.6ZM66.8 0.7L66.8 0.7Q66.15 0.7 65.75 0.1 65.35-0.5 65.35-1.45L65.35-1.45Q65.35-3.6 67.15-3.6L67.15-3.6Q69.35-3.6 71.07-5.43 72.8-7.25 73.82-10.4 74.85-13.55 74.85-17.4L74.85-17.4Q74.85-18.3 74.75-19.05 74.65-19.8 74.5-20.3L74.5-20.3Q74.05-20.75 73.52-21.75 73-22.75 72.62-23.88 72.25-25 72.25-25.7L72.25-25.7Q72.85-26.65 74.17-27.18 75.5-27.7 77.1-27.45L77.1-27.45Q78.05-25.7 78.65-23.05L78.65-23.05Q80.15-23.1 82.7-23.7L82.7-23.7Q84.3-24.05 85.27-24.18 86.25-24.3 86.95-24.3L86.95-24.3Q89.65-24.3 91.2-22.28 92.75-20.25 92.75-16.8L92.75-16.8 92.75-8.75Q92.75-6 93.47-4.8 94.2-3.6 95.8-3.6L95.8-3.6Q96.5-3.6 96.87-3 97.25-2.4 97.25-1.4L97.25-1.4Q97.25-0.6 96.82 0.05 96.4 0.7 95.45 0.7L95.45 0.7Q88.2 0.7 88.2-8.2L88.2-8.2 88.2-15.95Q88.2-18.2 87.7-19.1 87.2-20 85.9-20L85.9-20Q85.45-20 84.9-19.9 84.35-19.8 82.95-19.5L82.95-19.5Q80.5-19 79.25-18.9L79.25-18.9Q79.3-18.1 79.3-17.3L79.3-17.3Q79.3-11.9 77.75-7.85 76.2-3.8 73.37-1.55 70.55 0.7 66.8 0.7ZM95.44 0.7L95.44 0.7Q94.79 0.7 94.39 0.1 93.99-0.5 93.99-1.45L93.99-1.45Q93.99-3.6 95.79-3.6L95.79-3.6Q97.24-3.6 98.74-4.08 100.24-4.55 102.24-5.7L102.24-5.7Q100.29-9.1 100.29-13.7L100.29-13.7Q100.29-16.8 101.44-19.18 102.59-21.55 104.64-22.93 106.69-24.3 109.29-24.3L109.29-24.3Q111.49-24.3 113.19-23.28 114.89-22.25 115.84-20.45 116.79-18.65 116.79-16.3L116.79-16.3Q116.79-13.1 114.92-10.45 113.04-7.8 108.59-4.7L108.59-4.7Q110.19-3.55 112.89-3.55L112.89-3.55Q113.59-3.55 113.99-2.95 114.39-2.35 114.39-1.35L114.39-1.35Q114.39-0.4 113.94 0.15 113.49 0.7 112.64 0.7L112.64 0.7Q110.24 0.7 108.14-0.1 106.04-0.9 104.64-2.3L104.64-2.3Q99.84 0.7 95.44 0.7ZM104.64-14.1L104.64-14.1Q104.64-10.15 106.04-7.8L106.04-7.8Q109.29-10.05 110.87-12.2 112.44-14.35 112.44-16.3L112.44-16.3Q112.44-18.1 111.57-19.13 110.69-20.15 109.14-20.15L109.14-20.15Q107.19-20.15 105.92-18.4 104.64-16.65 104.64-14.1ZM133.04-3.6L133.04-3.6Q134.09-3.6 135.29-4.25 136.49-4.9 137.54-6.25L137.54-6.25Q138.99-8.25 139.56-10.95 140.14-13.65 140.14-16.2L140.14-16.2 140.14-23.6Q140.59-23.75 141.19-23.85 141.79-23.95 142.44-23.95L142.44-23.95Q143.59-23.95 144.69-23.6L144.69-23.6 144.69-12.05Q144.69-7.7 146.09-5.73 147.49-3.75 150.49-3.75L150.49-3.75Q157.64-3.75 157.64-14.2L157.64-14.2 157.64-23.6Q158.04-23.75 158.64-23.85 159.24-23.95 159.89-23.95L159.89-23.95Q161.09-23.95 162.19-23.6L162.19-23.6 162.19-9.2Q162.19-6.55 163.01-5.08 163.84-3.6 165.79-3.6L165.79-3.6Q166.64-3.6 166.94-2.9 167.24-2.2 167.24-1.4L167.24-1.4Q167.24-0.6 166.81 0.05 166.39 0.7 165.44 0.7L165.44 0.7Q160.64 0.7 158.94-3.5L158.94-3.5Q157.54-1.45 155.34-0.38 153.14 0.7 150.14 0.7L150.14 0.7Q143.79 0.7 141.44-4.7L141.44-4.7Q140.64-3.25 139.64-2.25L139.64-2.25Q138.29-0.9 136.51-0.1 134.74 0.7 132.69 0.7L132.69 0.7Q131.99 0.7 131.61 0.03 131.24-0.65 131.24-1.45L131.24-1.45Q131.24-2.3 131.66-2.95 132.09-3.6 133.04-3.6ZM165.79-3.6L165.79-3.6Q166.84-3.6 168.04-4.25 169.24-4.9 170.29-6.25L170.29-6.25Q171.54-7.95 172.11-10.15 172.69-12.35 172.84-14.6L172.84-14.6 172.84-23.6Q173.29-23.75 173.89-23.85 174.49-23.95 175.14-23.95L175.14-23.95Q176.29-23.95 177.39-23.6L177.39-23.6 177.39-9.2Q177.39-6.55 178.21-5.08 179.04-3.6 180.99-3.6L180.99-3.6Q181.84-3.6 182.14-2.9 182.44-2.2 182.44-1.4L182.44-1.4Q182.44-0.6 182.01 0.05 181.59 0.7 180.64 0.7L180.64 0.7Q175.44 0.7 173.89-4.2L173.89-4.2Q173.19-3.05 172.39-2.25L172.39-2.25Q171.04-0.9 169.26-0.1 167.49 0.7 165.44 0.7L165.44 0.7Q164.74 0.7 164.36 0.03 163.99-0.65 163.99-1.45L163.99-1.45Q163.99-2.3 164.41-2.95 164.84-3.6 165.79-3.6ZM175.19-30.8L175.19-30.8Q173.79-30.8 172.79-31.8 171.79-32.8 171.79-34.2L171.79-34.2Q171.79-35.7 172.76-36.65 173.74-37.6 175.19-37.6L175.19-37.6Q176.69-37.6 177.64-36.65 178.59-35.7 178.59-34.2L178.59-34.2Q178.59-32.75 177.61-31.78 176.64-30.8 175.19-30.8Z" opacity="1" transform="matrix(1,0,0,1,0,0)" fill="#ffffff" class="wordmark-text-0" data-fill-palette-color="quaternary" id="text-0"></path></svg></g></svg></g><g transform="matrix(1,0,0,1,136.4544,159.46354461798623)"><svg viewBox="0 0 122.6112 19.597612280424116" height="19.597612280424116" width="122.6112"><g transform="matrix(1,0,0,1,0,0)"><svg width="122.6112" viewBox="3 -39.65 315.91 50.5" height="19.597612280424116" data-palette-color="#ff0505"><path d="M3-34.55L9.35-34.55 9.35 0 3 0 3-34.55ZM19.1-34.55L25.55-34.55 16.15-18.9 26.3 0 19.3 0 9.6-18.45 19.1-34.55ZM47.65-13.85Q47.65-13.4 47.5-11.3L47.5-11.3 33.85-11.3Q34.05-7.2 35.27-5.58 36.5-3.95 38.75-3.95L38.75-3.95Q40.3-3.95 41.55-4.48 42.8-5 44.25-6.15L44.25-6.15 46.8-2.65Q43.3 0.75 38.4 0.75L38.4 0.75Q33.2 0.75 30.42-2.85 27.65-6.45 27.65-13L27.65-13Q27.65-19.55 30.3-23.35 32.95-27.15 37.8-27.15L37.8-27.15Q42.45-27.15 45.05-23.78 47.65-20.4 47.65-13.85L47.65-13.85ZM41.65-15.3L41.65-15.65Q41.65-19.4 40.75-21.13 39.85-22.85 37.85-22.85L37.85-22.85Q36-22.85 35.02-21.18 34.05-19.5 33.85-15.3L33.85-15.3 41.65-15.3ZM70.8-13.85Q70.8-13.4 70.65-11.3L70.65-11.3 57-11.3Q57.2-7.2 58.42-5.58 59.65-3.95 61.9-3.95L61.9-3.95Q63.45-3.95 64.7-4.48 65.95-5 67.4-6.15L67.4-6.15 69.95-2.65Q66.45 0.75 61.55 0.75L61.55 0.75Q56.35 0.75 53.57-2.85 50.8-6.45 50.8-13L50.8-13Q50.8-19.55 53.45-23.35 56.1-27.15 60.95-27.15L60.95-27.15Q65.59-27.15 68.2-23.78 70.8-20.4 70.8-13.85L70.8-13.85ZM64.8-15.3L64.8-15.65Q64.8-19.4 63.9-21.13 63-22.85 61-22.85L61-22.85Q59.15-22.85 58.17-21.18 57.2-19.5 57-15.3L57-15.3 64.8-15.3ZM87.29-27.15Q91.19-27.15 93.19-23.58 95.19-20 95.19-13.3L95.19-13.3Q95.19-6.8 92.92-3.03 90.64 0.75 86.59 0.75L86.59 0.75Q83.39 0.75 81.24-2.1L81.24-2.1 81.24 10.15 75.09 10.85 75.09-26.45 80.54-26.45 80.79-23.25Q82.09-25.25 83.69-26.2 85.29-27.15 87.29-27.15L87.29-27.15ZM84.94-3.95Q86.84-3.95 87.84-6.13 88.84-8.3 88.84-13.25L88.84-13.25Q88.84-18.45 87.99-20.5 87.14-22.55 85.34-22.55L85.34-22.55Q83.04-22.55 81.24-19.25L81.24-19.25 81.24-6.45Q82.84-3.95 84.94-3.95L84.94-3.95ZM131.14-34.55L131.14-9.7Q131.14-5.15 128.31-2.23 125.49 0.7 120.24 0.7L120.24 0.7Q114.89 0.7 112.09-2.18 109.29-5.05 109.29-9.7L109.29-9.7 109.29-34.55 115.64-34.55 115.64-10Q115.64-7.1 116.74-5.68 117.84-4.25 120.24-4.25L120.24-4.25Q122.59-4.25 123.69-5.68 124.79-7.1 124.79-10L124.79-10 124.79-34.55 131.14-34.55ZM136.64-34.55L142.99-34.55 142.99 0 136.64 0 136.64-34.55ZM166.03-27.15Q170.73-27.15 173.98-24.05L173.98-24.05 171.63-20.7Q170.23-21.7 168.98-22.2 167.73-22.7 166.43-22.7L166.43-22.7Q164.98-22.7 164.16-21.93 163.33-21.15 163.33-19.8L163.33-19.8Q163.33-18.45 164.26-17.63 165.18-16.8 167.98-15.7L167.98-15.7Q171.43-14.35 173.08-12.5 174.73-10.65 174.73-7.55L174.73-7.55Q174.73-3.7 172.03-1.48 169.33 0.75 165.18 0.75L165.18 0.75Q162.48 0.75 160.21-0.23 157.93-1.2 156.23-2.95L156.23-2.95 159.23-6.25Q162.03-3.8 164.93-3.8L164.93-3.8Q166.58-3.8 167.53-4.67 168.48-5.55 168.48-7.1L168.48-7.1Q168.48-8.25 168.08-8.97 167.68-9.7 166.68-10.33 165.68-10.95 163.68-11.7L163.68-11.7Q160.23-13.05 158.76-14.85 157.28-16.65 157.28-19.45L157.28-19.45Q157.28-22.8 159.66-24.98 162.03-27.15 166.03-27.15L166.03-27.15ZM178.58-26.45L184.73-26.45 184.73 0 178.58 0 178.58-26.45ZM181.63-39.65Q183.28-39.65 184.3-38.6 185.33-37.55 185.33-35.9L185.33-35.9Q185.33-34.3 184.3-33.25 183.28-32.2 181.63-32.2L181.63-32.2Q179.98-32.2 178.95-33.25 177.93-34.3 177.93-35.9L177.93-35.9Q177.93-37.55 178.95-38.6 179.98-39.65 181.63-39.65L181.63-39.65ZM214.08-27.15Q216.73-27.15 218.33-25.1 219.93-23.05 219.93-19.6L219.93-19.6 219.93 0 213.88 0 213.88-18.95Q213.88-20.85 213.38-21.68 212.88-22.5 211.93-22.5L211.93-22.5Q209.98-22.5 208.18-18.8L208.18-18.8 208.18 0 202.18 0 202.18-18.95Q202.18-22.5 200.28-22.5L200.28-22.5Q198.23-22.5 196.48-18.8L196.48-18.8 196.48 0 190.43 0 190.43-26.45 195.78-26.45 196.18-23.05Q198.78-27.15 202.43-27.15L202.43-27.15Q204.28-27.15 205.63-26 206.98-24.85 207.68-22.75L207.68-22.75Q210.33-27.15 214.08-27.15L214.08-27.15ZM237.62-27.15Q241.52-27.15 243.52-23.58 245.52-20 245.52-13.3L245.52-13.3Q245.52-6.8 243.25-3.03 240.97 0.75 236.92 0.75L236.92 0.75Q233.72 0.75 231.57-2.1L231.57-2.1 231.57 10.15 225.42 10.85 225.42-26.45 230.87-26.45 231.12-23.25Q232.42-25.25 234.02-26.2 235.62-27.15 237.62-27.15L237.62-27.15ZM235.27-3.95Q237.17-3.95 238.17-6.13 239.17-8.3 239.17-13.25L239.17-13.25Q239.17-18.45 238.32-20.5 237.47-22.55 235.67-22.55L235.67-22.55Q233.37-22.55 231.57-19.25L231.57-19.25 231.57-6.45Q233.17-3.95 235.27-3.95L235.27-3.95ZM255.72 0.75Q253.02 0.75 251.45-0.93 249.87-2.6 249.87-5.4L249.87-5.4 249.87-37.05 256.02-37.7 256.02-5.65Q256.02-5 256.32-4.6 256.62-4.2 257.22-4.2L257.22-4.2Q257.57-4.2 257.9-4.3 258.22-4.4 258.32-4.4L258.32-4.4 259.52-0.2Q257.82 0.75 255.72 0.75L255.72 0.75ZM281.42-13.85Q281.42-13.4 281.27-11.3L281.27-11.3 267.62-11.3Q267.82-7.2 269.04-5.58 270.27-3.95 272.52-3.95L272.52-3.95Q274.07-3.95 275.32-4.48 276.57-5 278.02-6.15L278.02-6.15 280.57-2.65Q277.07 0.75 272.17 0.75L272.17 0.75Q266.97 0.75 264.19-2.85 261.42-6.45 261.42-13L261.42-13Q261.42-19.55 264.07-23.35 266.72-27.15 271.57-27.15L271.57-27.15Q276.22-27.15 278.82-23.78 281.42-20.4 281.42-13.85L281.42-13.85ZM275.42-15.3L275.42-15.65Q275.42-19.4 274.52-21.13 273.62-22.85 271.62-22.85L271.62-22.85Q269.77-22.85 268.79-21.18 267.82-19.5 267.62-15.3L267.62-15.3 275.42-15.3ZM293.06-27.15Q297.76-27.15 301.01-24.05L301.01-24.05 298.67-20.7Q297.26-21.7 296.01-22.2 294.76-22.7 293.47-22.7L293.47-22.7Q292.01-22.7 291.19-21.93 290.37-21.15 290.37-19.8L290.37-19.8Q290.37-18.45 291.29-17.63 292.22-16.8 295.01-15.7L295.01-15.7Q298.47-14.35 300.12-12.5 301.76-10.65 301.76-7.55L301.76-7.55Q301.76-3.7 299.06-1.48 296.37 0.75 292.22 0.75L292.22 0.75Q289.51 0.75 287.24-0.23 284.97-1.2 283.26-2.95L283.26-2.95 286.26-6.25Q289.06-3.8 291.97-3.8L291.97-3.8Q293.62-3.8 294.56-4.67 295.51-5.55 295.51-7.1L295.51-7.1Q295.51-8.25 295.12-8.97 294.72-9.7 293.72-10.33 292.72-10.95 290.72-11.7L290.72-11.7Q287.26-13.05 285.79-14.85 284.31-16.65 284.31-19.45L284.31-19.45Q284.31-22.8 286.69-24.98 289.06-27.15 293.06-27.15L293.06-27.15ZM316.76-5L318.91-1.2Q316.46 0.75 313.16 0.75L313.16 0.75Q309.71 0.75 307.91-1.23 306.11-3.2 306.11-6.6L306.11-6.6 306.11-22 303.01-22 303.01-26.45 306.11-26.45 306.11-32.3 312.26-33.05 312.26-26.45 317.26-26.45 316.66-22 312.26-22 312.26-6.6Q312.26-4.2 314.31-4.2L314.31-4.2Q314.96-4.2 315.46-4.38 315.96-4.55 316.76-5L316.76-5Z" opacity="1" transform="matrix(1,0,0,1,0,0)" fill="#ff0505" class="slogan-text-1" data-fill-palette-color="secondary" id="text-1"></path></svg></g></svg></g></svg></g></svg></g><g></g></svg></g><defs></defs></svg><rect width="395.52" height="179.06115689841033" fill="none" stroke="none" visibility="hidden"></rect></g></svg></g></svg>